<svg width="3072" height="3072" viewBox="0 0 3072 3072" fill="none" xmlns="http://www.w3.org/2000/svg">
<g clip-path="url(#clip0_739_14)">
<rect width="3072" height="3072" fill="#1F2937"/>
<circle cx="1536" cy="1536" r="1278.5" fill="#1F2937" stroke="#FFAA07" stroke-width="313"/>
<path d="M3014.16 1434.07C3090.81 1480.85 3090.81 1592.15 3014.16 1638.93L2129.26 2178.99C2049.3 2227.79 1946.75 2170.24 1946.75 2076.56V996.444C1946.75 902.764 2049.3 845.211 2129.26 894.013L3014.16 1434.07Z" fill="#1F2937"/>
<path d="M2191.16 1434.07C2267.81 1480.85 2267.81 1592.15 2191.16 1638.93L1306.26 2178.99C1226.3 2227.79 1123.75 2170.24 1123.75 2076.56V996.444C1123.75 902.764 1226.3 845.211 1306.26 894.013L2191.16 1434.07Z" fill="#FFAA07"/>
<path d="M2928.66 1492.47C2961.24 1512.35 2961.24 1559.65 2928.66 1579.53L2735.57 1697.38C2701.58 1718.12 2658 1693.65 2658 1653.84V1418.16C2658 1378.35 2701.58 1353.88 2735.57 1374.62L2928.66 1492.47Z" fill="#FFAA07"/>
</g>
<defs>
<clipPath id="clip0_739_14">
<rect width="3072" height="3072" fill="white"/>
</clipPath>
</defs>
</svg>
